# xmcd CD database file
#
# Track frame offsets:
#	150
#	26147
#	46880
#	60906
#	77122
#	93595
#	110231
#	131162
#	148210
#	164238
#	181639
#	199781
#	228883
#
# Disc length: 3353 seconds
#
# Revision: 0
# Processed by: cddbd v1.5.2PL0 Copyright (c) Steve Scherf et al.
# Submitted via: CDex 1.70beta2
#
DISCID=b80d170d
DTITLE=Deldongo - Pueblo Populaire
DYEAR=2008
DGENRE=Salsa
TTITLE0=Pueblo Populaire
TTITLE1=Destination Amazone
TTITLE2=La Timbale
TTITLE3=Marilou Jack
TTITLE4=Reveil Brutal
TTITLE5=Qui A Dit
TTITLE6=De Temps En Temps Une Sirène
TTITLE7=Dos Cosas
TTITLE8=Et Moi Et Moi Et Moi
TTITLE9=J'oublie Tout Cela
TTITLE10=Frenchy Salsa
TTITLE11=Fait Divers
TTITLE12=Hermano De Tu Tierra
EXTD=YEAR: 2008
EXTT0=
EXTT1=
EXTT2=
EXTT3=
EXTT4=
EXTT5=
EXTT6=
EXTT7=
EXTT8=
EXTT9=
EXTT10=
EXTT11=
EXTT12=
PLAYORDER=
